<?xml version="1.0" encoding="UTF-8" standalone="no"?>
<svg width="122px" height="140px" viewBox="0 0 122 140" version="1.1" xmlns="http://www.w3.org/2000/svg" xmlns:xlink="http://www.w3.org/1999/xlink">
    <!-- Generator: Sketch 41.2 (35397) - http://www.bohemiancoding.com/sketch -->
    <title>Container D - labeled</title>
    <desc>Created with Sketch.</desc>
    <defs></defs>
    <g id="Page-1" stroke="none" stroke-width="1" fill="none" fill-rule="evenodd">
        <g id="Container-D---labeled" transform="translate(-1.000000, 0.000000)" fill="#384248">
            <g transform="translate(9.142857, 7.576923)" id="Path-2-Copy-5">
                <path d="M113.168176,31.5103586 C112.680311,30.4770601 111.720259,28.7609773 110.252078,26.5886121 C107.830529,23.005614 104.830508,19.429074 101.21299,16.08956 C90.8631853,6.53512993 77.6145084,0.788461538 61.3017564,0.788461538 C26.1480147,0.788461538 3.4802121e-15,28.2411009 0,60.7878793 C0,93.8247551 26.7875042,124.211077 60.9038674,124.211077 C76.8166686,124.211077 89.8176218,119.131483 100.053444,110.670577 C103.641113,107.705019 106.629082,104.525803 109.051173,101.338376 C110.523622,99.4006602 111.492756,97.8656397 111.990805,96.9346111 C112.717065,95.5769731 112.206317,93.8870589 110.850017,93.1600819 C109.493717,92.433105 107.805467,92.9443567 107.079207,94.3019947 C106.714513,94.9837356 105.901761,96.2710618 104.616777,97.9620773 C102.443145,100.822536 99.7470404,103.691206 96.5058802,106.370341 C87.2307621,114.037131 75.4649257,118.634154 60.9038674,118.634154 C30.030414,118.634154 5.57142857,90.88918 5.57142857,60.7878793 C5.57142857,31.2632153 29.2860461,6.36538462 61.3017564,6.36538462 C76.1360991,6.36538462 88.0672312,11.5405625 97.4358498,20.1892095 C100.719781,23.2207725 103.445574,26.4703864 105.637443,29.7135423 C106.937313,31.6368693 107.759391,33.1063251 108.130972,33.8933342 C108.788364,35.2856916 110.448902,35.880973 111.839888,35.2229324 C113.230874,34.5648919 113.825569,32.902716 113.168176,31.5103586 Z"></path>
            </g>
            <g id="Group" transform="translate(59.285714, 0.365154)">
                <ellipse id="Oval-2-Copy-7" cx="11.1428571" cy="127.711504" rx="11.1428571" ry="11.1538462"></ellipse>
                <ellipse id="Oval-2-Copy-8" cx="11.1428571" cy="11.7115725" rx="11.1428571" ry="11.1538462"></ellipse>
            </g>
            <g id="Group" transform="translate(12.156593, 70.433835) rotate(90.000000) translate(-12.156593, -70.433835) translate(0.656593, 58.933835)">
                <ellipse id="Oval-2-Copy-7" cx="11.1428571" cy="11.1730429" rx="11.1428571" ry="11.1538462"></ellipse>
            </g>
            <g id="Group" transform="translate(20.142130, 99.549449) rotate(60.000000) translate(-20.142130, -99.549449) translate(8.642130, 88.049449)">
                <ellipse id="Oval-2-Copy-7" cx="11.1428571" cy="11.1730429" rx="11.1428571" ry="11.1538462"></ellipse>
            </g>
            <g id="Group" transform="translate(70.225046, 70.438461) rotate(150.000000) translate(-70.225046, -70.438461) translate(58.725046, 0.938461)">
                <ellipse id="Oval-2-Copy-7" cx="11.1428571" cy="127.711504" rx="11.1428571" ry="11.1538462"></ellipse>
                <ellipse id="Oval-2-Copy-8" cx="11.1428571" cy="11.7115725" rx="11.1428571" ry="11.1538462"></ellipse>
            </g>
            <g id="Group" transform="translate(70.843635, 70.072066) rotate(30.000000) translate(-70.843635, -70.072066) translate(59.343635, 0.572066)">
                <ellipse id="Oval-2-Copy-7" cx="11.1428571" cy="127.711504" rx="11.1428571" ry="11.1538462"></ellipse>
                <ellipse id="Oval-2-Copy-8" cx="11.1428571" cy="11.7115725" rx="11.1428571" ry="11.1538462"></ellipse>
            </g>
            <g id="Group" transform="translate(19.784987, 41.222526) rotate(120.000000) translate(-19.784987, -41.222526) translate(8.284987, 29.722526)">
                <ellipse id="Oval-2-Copy-7" cx="11.1428571" cy="11.1730429" rx="11.1428571" ry="11.1538462"></ellipse>
            </g>
            <path d="M74.9816667,38 C56.74,38 42,52.7766667 42,71 L31,71 L45.2816667,85.2816667 L45.5383333,85.8133333 L60.3333333,71 L49.3333333,71 C49.3333333,56.8283333 60.8283333,45.3333333 75,45.3333333 C89.1716667,45.3333333 100.666667,56.8283333 100.666667,71 C100.666667,85.1716667 89.1716667,96.6666667 75,96.6666667 C67.905,96.6666667 61.5066667,93.77 56.8683333,89.1316667 L51.68,94.32 C57.6383333,100.296667 65.87,104 74.9816667,104 C93.2233333,104 108,89.2233333 108,71 C108,52.7766667 93.2233333,38 74.9816667,38 Z M71.3333333,56.3333333 L71.3333333,74.6666667 L87.0266667,83.98 L89.6666667,79.525 L76.8333333,71.9166667 L76.8333333,56.3333333 L71.3333333,56.3333333 Z" id="Shape"></path>
        </g>
    </g>
</svg>
