<?xml version="1.0" encoding="UTF-8" standalone="no"?>
<svg width="24px" height="23px" viewBox="0 0 24 23" version="1.1" xmlns="http://www.w3.org/2000/svg" xmlns:xlink="http://www.w3.org/1999/xlink">
    <!-- Generator: Sketch 41.2 (35397) - http://www.bohemiancoding.com/sketch -->
    <title>3D</title>
    <desc>Created with Sketch.</desc>
    <defs>
        <polygon id="path-1" points="7.99998644 0.00972163784 0 0.00972163784 0 8.21545947 7.99998644 8.21545947 7.99998644 0.00972163784"></polygon>
    </defs>
    <g id="Page-1" stroke="none" stroke-width="1" fill="none" fill-rule="evenodd">
        <g id="Document-Icons" transform="translate(-502.000000, -330.000000)">
            <g id="3D" transform="translate(502.000000, 330.000000)">
                <g>
                    <g id="Page-1" transform="translate(16.000000, 8.000000)">
                        <path d="M7.45762712,6.35098169 L4.06779661,7.66755617 L4.06779661,3.34142734 L7.45762712,2.02480721 L7.45762712,6.35098169 Z M0.542372881,2.02480721 L3.93220339,3.34142734 L3.93220339,7.66755617 L0.542372881,6.35098169 L0.542372881,2.02480721 Z M4.01157062,0.598191089 L7.39367232,1.90299007 L4,3.22102508 L0.606553672,1.90308135 L4.01157062,0.598191089 Z M7.58277966,1.82955291 L7.58282486,1.82937034 L4.03584181,0.460947122 C4.02033898,0.454922445 4.00316384,0.454922445 3.98761582,0.460901481 L0.417265537,1.82918778 L0.41740113,1.82959855 L0.406779661,1.82549081 L0.406779661,6.4450488 L4,7.84062871 L7.59322034,6.4450488 L7.59322034,1.82549081 L7.58277966,1.82955291 Z" id="Fill-1" fill="#384248"></path>
                        <g id="Group-5" transform="translate(0.000000, 0.035920)">
                            <mask id="mask-2" fill="white">
                                <use xlink:href="#path-1"></use>
                            </mask>
                            <g id="Clip-4"></g>
                            <path d="M1.74633672,1.8696946 L3.99998644,2.74500714 L6.25720678,1.868371 L4.01105989,1.00177598 L1.74633672,1.8696946 Z M0.949138983,6.03292895 L3.52541017,7.03352738 L3.52541017,3.58759472 L0.949138983,2.58699629 L0.949138983,6.03292895 Z M4.47456271,3.58759472 L4.47456271,7.03352738 L7.0508339,6.03292895 L7.0508339,2.58699629 L4.47456271,3.58759472 Z M3.99998644,8.21545947 C3.95049492,8.21545947 3.90095819,8.20633117 3.85395254,8.18812021 L0.260732203,6.79249466 C0.103670056,6.73147199 -1.35593223e-05,6.57907505 -1.35593223e-05,6.40910613 L-1.35593223e-05,1.78954814 C-1.35593223e-05,1.65412983 0.0661107345,1.52742905 0.176664407,1.45079698 C0.22520678,1.4171592 0.279624859,1.39511436 0.335941243,1.38507324 L3.84328588,0.0409312902 C3.95239322,-0.000921958142 4.07261921,-0.000693750681 4.18168136,0.0415702711 L7.66412203,1.38507324 C7.72057401,1.39516001 7.77499209,1.41729613 7.82357966,1.45102519 C7.93404294,1.52765726 7.99998644,1.65426676 7.99998644,1.78954814 L7.99998644,6.40910613 C7.99998644,6.57907505 7.89634802,6.73147199 7.73924068,6.79249466 L4.14602034,8.18812021 C4.09901469,8.20633117 4.04952316,8.21545947 3.99998644,8.21545947 L3.99998644,8.21545947 Z" id="Fill-3" fill="#384248" mask="url(#mask-2)"></path>
                        </g>
                    </g>
                    <g id="Doc---Picture" fill="#384248">
                        <path d="M20.8122368,6.00875396 C20.7246713,5.82347284 20.5523543,5.51576145 20.2888346,5.12623389 C19.8541975,4.48376528 19.3157322,3.84245464 18.6664342,3.24364525 C16.8087769,1.53043709 14.4308092,0.5 11.5028793,0.5 C5.19323341,0.5 0.5,5.42254224 0.5,11.2585163 C0.5,17.1823699 5.30801358,22.6309517 11.4314634,22.6309517 C14.2876072,22.6309517 16.6211116,21.7201279 18.4583104,20.203 C19.102251,19.6712448 19.6385533,19.1011785 20.0732875,18.5296399 C20.3375732,18.1821873 20.5115204,17.9069423 20.6009137,17.7399992 C20.7312682,17.4965607 20.6395954,17.1935416 20.3961569,17.0631871 C20.1527184,16.9328326 19.8496993,17.0245053 19.7193448,17.2679439 C19.653887,17.3901871 19.5080083,17.621018 19.2773702,17.9242345 C18.8872312,18.4371445 18.4033149,18.9515266 17.8215682,19.4319233 C16.1568035,20.806658 14.0449867,21.6309517 11.4314634,21.6309517 C5.89007431,21.6309517 1.5,16.6559909 1.5,11.2585163 C1.5,5.96443861 5.75646981,1.5 11.5028793,1.5 C14.1654537,1.5 16.3069389,2.42796293 17.9884859,3.9787548 C18.5779093,4.52234542 19.0671543,5.1050348 19.4605667,5.6865662 C19.6938767,6.03143864 19.8414291,6.29492726 19.9081232,6.43604614 C20.0261166,6.68571021 20.324162,6.79245032 20.5738261,6.67445685 C20.8234901,6.55646337 20.9302302,6.25841804 20.8122368,6.00875396 Z" id="Path-2-Copy-4"></path>
                    </g>
                </g>
            </g>
        </g>
    </g>
</svg>