<svg width="1440" height="1024" viewBox="0 0 1440 1024" fill="none" xmlns="http://www.w3.org/2000/svg">
<g opacity="0.4">
<path d="M1366.33 170.926H1191.8C1190.87 170.926 1190.1 170.158 1190.1 169.218V50.7076C1190.1 49.7684 1190.87 49 1191.8 49H1366.33C1367.27 49 1368.03 49.7684 1368.03 50.7076V169.304C1368.03 170.158 1367.27 170.926 1366.33 170.926ZM1193.6 167.511H1364.7V52.4153H1193.6V167.511Z" fill="#9F9FA0"/>
<path d="M1365.3 158.631C1365.04 158.631 1364.7 158.546 1364.45 158.375L1270.27 104.499C1256.44 96.558 1239.45 96.9849 1225.87 105.523L1192.66 126.613C1191.89 127.125 1190.78 126.869 1190.27 126.1C1189.75 125.332 1190.01 124.222 1190.78 123.71L1223.99 102.62C1238.59 93.3988 1256.86 92.9719 1271.89 101.51L1366.07 155.386C1366.92 155.813 1367.18 156.923 1366.67 157.692C1366.5 158.375 1365.9 158.631 1365.3 158.631Z" fill="#9F9FA0"/>
<path d="M1333.03 99.2903C1325.43 99.2903 1319.19 93.0573 1319.19 85.4583C1319.19 77.8593 1325.43 71.6263 1333.03 71.6263C1340.62 71.6263 1346.86 77.8593 1346.86 85.4583C1346.86 93.1427 1340.62 99.2903 1333.03 99.2903ZM1333.03 75.0416C1327.31 75.0416 1322.61 79.7377 1322.61 85.4583C1322.61 91.1789 1327.31 95.875 1333.03 95.875C1338.75 95.875 1343.44 91.1789 1343.44 85.4583C1343.44 79.7377 1338.75 75.0416 1333.03 75.0416Z" fill="#9F9FA0"/>
<path d="M393.7 256.7H345.715V253.285H390.285V208.715H393.7V256.7Z" fill="#9F9FA0"/>
<path d="M290.9 256.7H243V208.715H246.415V253.285H290.9V256.7Z" fill="#9F9FA0"/>
<path d="M246.415 153.899H243V106H290.9V109.415H246.415V153.899Z" fill="#9F9FA0"/>
<path d="M393.7 153.899H390.285V109.415H345.715V106H393.7V153.899Z" fill="#9F9FA0"/>
<path d="M390.56 106.65L243.61 253.6L246.025 256.015L392.975 109.065L390.56 106.65Z" fill="#9F9FA0"/>
<path d="M246.025 106.65L243.61 109.065L390.56 256.015L392.975 253.6L246.025 106.65Z" fill="#9F9FA0"/>
<path d="M1186.5 362.949C1157.3 362.949 1131.09 347.495 1114.18 334.432C1096 320.429 1084.47 306.17 1084.38 305.999C1083.87 305.402 1083.87 304.462 1084.38 303.865C1084.47 303.694 1096 289.52 1114.18 275.432C1131 262.454 1157.22 247 1186.5 247C1215.79 247 1241.91 262.454 1258.82 275.432C1277.01 289.435 1288.53 303.694 1288.62 303.865C1289.13 304.462 1289.13 305.402 1288.62 305.999C1288.53 306.17 1277.01 320.343 1258.82 334.432C1241.91 347.495 1215.7 362.949 1186.5 362.949ZM1087.97 304.975C1094.54 312.659 1136.55 359.534 1186.5 359.534C1236.45 359.534 1278.46 312.744 1285.03 304.975C1278.46 297.29 1236.45 250.415 1186.5 250.415C1136.55 250.501 1094.54 297.29 1087.97 304.975Z" fill="#9F9FA0"/>
<path d="M1186.5 343.909C1165.07 343.909 1147.65 326.491 1147.65 305.06C1147.65 283.629 1165.07 266.211 1186.5 266.211C1207.93 266.211 1225.35 283.629 1225.35 305.06C1225.35 326.406 1207.93 343.909 1186.5 343.909ZM1186.5 269.541C1166.95 269.541 1151.07 285.422 1151.07 304.975C1151.07 324.527 1166.95 340.408 1186.5 340.408C1206.05 340.408 1221.94 324.527 1221.94 304.975C1221.94 285.422 1206.05 269.541 1186.5 269.541Z" fill="#9F9FA0"/>
<path d="M1186.5 321.539C1177.37 321.539 1170.02 314.111 1170.02 305.06C1170.02 296.009 1177.45 288.581 1186.5 288.581C1195.55 288.581 1202.98 296.009 1202.98 305.06C1202.98 314.111 1195.64 321.539 1186.5 321.539ZM1186.5 291.911C1179.24 291.911 1173.44 297.802 1173.44 304.975C1173.44 312.147 1179.33 318.038 1186.5 318.038C1193.67 318.038 1199.56 312.147 1199.56 304.975C1199.56 297.802 1193.76 291.911 1186.5 291.911Z" fill="#9F9FA0"/>
<path d="M254.906 929.979H113L140.835 784.914C123.758 771.509 114.025 751.53 114.025 729.928C114.025 691.335 145.445 660 183.953 660C222.546 660 253.881 691.421 253.881 729.928C253.881 751.53 244.147 771.509 227.071 784.914L254.906 929.979ZM117.098 926.564H250.807L223.314 783.463L224.168 782.78C240.903 770.058 250.551 750.761 250.551 729.843C250.551 693.128 220.667 663.33 184.038 663.33C147.409 663.33 117.525 693.214 117.525 729.843C117.525 750.761 127.088 770.058 143.908 782.78L144.762 783.463L144.591 784.487L117.098 926.564Z" fill="#9F9FA0"/>
<path d="M161.156 700.557C148.775 710.12 141.176 719.512 140.835 719.939C140.322 720.536 140.322 721.475 140.835 722.073C141.176 722.5 148.775 731.892 161.156 741.455C172.682 750.335 190.527 760.922 210.592 760.922C225.278 760.922 238.854 755.201 249.612 748.627C250.039 747.005 250.466 745.382 250.807 743.76C239.537 751.188 225.619 757.507 210.592 757.507C177.634 757.507 149.714 727.196 144.421 721.049C149.714 714.901 177.634 684.59 210.592 684.59C221.521 684.59 231.852 687.92 240.988 692.616C239.707 690.652 238.256 688.689 236.804 686.896C228.779 683.566 219.899 681.26 210.592 681.26C190.613 681.09 172.682 691.677 161.156 700.557Z" fill="#9F9FA0"/>
<path d="M183.611 720.963C183.611 735.82 195.735 747.944 210.592 747.944C225.449 747.944 237.573 735.82 237.573 720.963C237.573 706.107 225.449 693.982 210.592 693.982C195.735 693.982 183.611 706.107 183.611 720.963ZM234.072 720.963C234.072 733.941 223.485 744.529 210.507 744.529C197.529 744.529 186.941 733.941 186.941 720.963C186.941 707.985 197.529 697.398 210.507 697.398C223.485 697.398 234.072 707.985 234.072 720.963Z" fill="#9F9FA0"/>
<path d="M198.809 720.963C198.809 727.452 204.103 732.746 210.592 732.746C217.081 732.746 222.375 727.452 222.375 720.963C222.375 714.474 217.081 709.18 210.592 709.18C204.103 709.18 198.809 714.474 198.809 720.963ZM218.959 720.963C218.959 725.574 215.203 729.331 210.592 729.331C205.981 729.331 202.224 725.574 202.224 720.963C202.224 716.353 205.981 712.596 210.592 712.596C215.203 712.596 218.959 716.353 218.959 720.963Z" fill="#9F9FA0"/>
<path d="M158.518 493.582H65.7076C64.7684 493.582 64 492.814 64 491.875V196.708C64 195.768 64.7684 195 65.7076 195H158.518C159.457 195 160.226 195.768 160.226 196.708V491.789C160.226 492.814 159.457 493.582 158.518 493.582ZM67.4153 490.167H156.811V198.415H67.4153V490.167Z" fill="#9F9FA0"/>
<path d="M139.99 272.869C139.563 272.869 139.137 272.698 138.795 272.356L119.84 253.402C115.827 256.817 110.79 258.781 105.41 258.781C99.5191 258.781 93.8839 256.475 89.7001 252.292C81.0765 243.668 81.0765 229.58 89.7001 220.871C98.3238 212.247 112.412 212.247 121.121 220.871C125.305 225.055 127.61 230.605 127.61 236.581C127.61 241.96 125.731 246.998 122.231 251.011L141.186 269.966C141.869 270.649 141.869 271.673 141.186 272.356C140.844 272.698 140.417 272.869 139.99 272.869ZM105.325 217.797C100.544 217.797 95.6769 219.59 92.0055 223.262C84.6626 230.605 84.6626 242.473 92.0055 249.816C99.3483 257.158 111.216 257.158 118.559 249.816C125.902 242.473 125.902 230.605 118.559 223.262C114.973 219.59 110.107 217.797 105.325 217.797Z" fill="#9F9FA0"/>
<path d="M83.638 473.944H83.3818C82.6988 473.944 82.0157 473.773 81.5034 473.432C80.9911 473.176 80.5642 472.749 80.1373 472.322C80.1373 472.237 80.0519 472.237 80.0519 472.151C79.7104 471.639 79.4542 470.956 79.4542 470.273C79.4542 469.76 79.5396 469.334 79.625 468.821L85.7725 449.952C85.8579 449.696 86.0287 449.439 86.1994 449.269L124.451 411.017C125.39 410.078 126.585 409.566 127.951 409.566C129.232 409.566 130.513 410.078 131.452 411.017L142.21 421.776C144.089 423.739 144.089 426.813 142.21 428.777L103.959 467.028C103.788 467.199 103.532 467.37 103.276 467.455L84.2356 473.859C84.0649 473.859 83.8087 473.944 83.638 473.944ZM82.8695 470.273C82.9549 470.358 82.9549 470.358 83.0403 470.444C83.1257 470.444 83.211 470.529 83.2964 470.529L101.824 464.381L139.734 426.472C140.332 425.874 140.332 424.935 139.734 424.337L128.976 413.579C128.72 413.323 128.293 413.152 127.866 413.152C127.439 413.152 127.098 413.323 126.756 413.579L88.7609 451.574L82.6987 470.017C82.8695 470.017 82.8695 470.187 82.8695 470.273Z" fill="#9F9FA0"/>
<path d="M102.422 467.37C101.995 467.37 101.568 467.199 101.227 466.857L86.6263 451.745C85.9433 451.062 86.0286 449.952 86.6263 449.354C87.3094 448.671 88.4193 448.756 89.017 449.354L103.617 464.467C104.3 465.15 104.215 466.26 103.617 466.857C103.276 467.199 102.849 467.37 102.422 467.37Z" fill="#9F9FA0"/>
<path d="M136.148 434.327C135.721 434.327 135.294 434.156 134.953 433.815L119.755 418.531C119.072 417.848 119.072 416.823 119.755 416.14C120.438 415.457 121.462 415.457 122.145 416.14L137.343 431.424C138.026 432.107 138.026 433.131 137.343 433.815C137.002 434.156 136.575 434.327 136.148 434.327Z" fill="#9F9FA0"/>
<path d="M157.921 292.592H66.3053C65.3661 292.592 64.5977 291.824 64.5977 290.885C64.5977 289.945 65.3661 289.177 66.3053 289.177H158.006C158.945 289.177 159.714 289.945 159.714 290.885C159.714 291.824 158.86 292.592 157.921 292.592Z" fill="#9F9FA0"/>
<path d="M157.921 392.49H66.3053C65.3661 392.49 64.5977 391.721 64.5977 390.782C64.5977 389.843 65.3661 389.074 66.3053 389.074H158.006C158.945 389.074 159.714 389.843 159.714 390.782C159.714 391.721 158.86 392.49 157.921 392.49Z" fill="#9F9FA0"/>
<path d="M108.484 373.62C100.714 373.62 92.9445 370.632 86.9677 364.74C86.2847 364.057 86.2847 363.033 86.9677 362.35C87.6508 361.666 88.6754 361.666 89.3584 362.35C99.8605 372.852 117.022 372.852 127.524 362.35C132.647 357.227 135.465 350.481 135.465 343.224C135.465 335.966 132.647 329.221 127.524 324.098C122.401 318.975 115.656 316.158 108.399 316.158C101.141 316.158 94.4814 318.975 89.3584 324.098C88.6754 324.781 87.6508 324.781 86.9677 324.098C86.2847 323.415 86.2847 322.391 86.9677 321.708C92.6884 315.987 100.373 312.828 108.484 312.828C116.595 312.828 124.28 315.987 130 321.708C135.721 327.428 138.88 335.113 138.88 343.224C138.88 351.335 135.721 359.02 130 364.74C124.024 370.632 116.254 373.62 108.484 373.62Z" fill="#9F9FA0"/>
<path d="M87.7362 325.123H87.6508C86.7116 325.037 86.0286 324.269 86.0286 323.33L86.4555 317.353C86.5409 316.414 87.3093 315.731 88.2485 315.731C89.1877 315.816 89.8708 316.585 89.8708 317.524L89.4439 323.501C89.3585 324.44 88.59 325.123 87.7362 325.123Z" fill="#9F9FA0"/>
<path d="M87.7362 325.123C86.8824 325.123 86.114 324.44 86.0286 323.501C85.9432 322.561 86.7116 321.708 87.6509 321.708L93.6276 321.281C94.5668 321.195 95.4206 321.964 95.4206 322.903C95.506 323.842 94.7376 324.696 93.7984 324.696L87.8216 325.123C87.7362 325.123 87.7362 325.123 87.7362 325.123Z" fill="#9F9FA0"/>
<path d="M120.096 357.91C119.669 357.91 119.242 357.739 118.901 357.397L107.63 346.127C107.289 345.785 107.118 345.358 107.118 344.931V327.599C107.118 326.66 107.886 325.891 108.826 325.891C109.765 325.891 110.533 326.66 110.533 327.599V344.248L121.292 355.007C121.975 355.69 121.975 356.714 121.292 357.397C120.95 357.739 120.523 357.91 120.096 357.91Z" fill="#9F9FA0"/>
<path d="M723.208 359.217C722.184 359.217 721.074 359.132 720.049 359.046H600.856C594.623 359.046 588.39 357.68 582.84 355.033C572.85 350.166 565.251 341.714 561.494 331.297C557.737 320.795 558.25 309.524 562.86 299.364C567.556 289.118 576.009 281.263 586.597 277.335C596.843 273.493 607.857 273.749 617.932 278.018C627.239 258.551 646.962 246 668.564 246C682.566 246 695.971 251.208 706.303 260.686C716.378 269.907 722.696 282.373 724.233 295.949C732.344 296.205 739.943 299.449 745.749 305.255C751.726 311.232 754.971 319.173 754.971 327.711C754.885 345.044 740.712 359.217 723.208 359.217ZM600.856 355.631H720.22H720.305C721.245 355.716 722.184 355.802 723.123 355.802C730.722 355.802 737.809 352.899 743.103 347.52C748.482 342.226 751.385 335.054 751.385 327.54C751.385 320.027 748.482 312.854 743.103 307.561C737.809 302.267 730.722 299.279 723.208 299.279C723.123 299.279 723.038 299.279 722.952 299.279C721.757 299.279 720.818 298.425 720.732 297.229C719.537 284.166 713.56 272.042 703.827 263.162C694.264 254.197 681.627 249.33 668.478 249.33C647.816 249.33 628.946 261.54 620.493 280.409C620.237 280.921 619.81 281.348 619.298 281.604C618.786 281.775 618.273 281.775 617.761 281.604L617.59 281.519C598.123 272.554 574.985 281.178 566.02 300.73C561.75 310.037 561.323 320.453 564.824 330.102C568.325 339.75 575.241 347.52 584.462 351.96C589.414 354.35 595.22 355.631 600.856 355.631Z" fill="#9F9FA0"/>
<path d="M1354.95 559.49H1246.86C1238.66 559.49 1232 552.83 1232 544.634V489.562C1232 481.365 1238.66 474.705 1246.86 474.705H1354.95C1363.15 474.705 1369.81 481.365 1369.81 489.562V544.634C1369.89 552.83 1363.23 559.49 1354.95 559.49ZM1246.94 478.035C1240.62 478.035 1235.5 483.158 1235.5 489.477V544.548C1235.5 550.867 1240.62 555.989 1246.94 555.989H1355.04C1361.35 555.989 1366.48 550.867 1366.48 544.548V489.477C1366.48 483.158 1361.35 478.035 1355.04 478.035H1246.94Z" fill="#9F9FA0"/>
<path d="M1337.62 478.206C1336.68 478.206 1335.91 477.438 1335.91 476.498V458.995C1335.91 439.955 1320.37 424.415 1301.33 424.415C1282.29 424.415 1266.75 439.955 1266.75 458.995V476.498C1266.75 477.438 1265.98 478.206 1265.04 478.206C1264.1 478.206 1263.34 477.438 1263.34 476.498V458.995C1263.34 438.076 1280.33 421 1301.33 421C1322.25 421 1339.33 437.991 1339.33 458.995V476.498C1339.33 477.438 1338.56 478.206 1337.62 478.206Z" fill="#9F9FA0"/>
<path d="M1329.51 478.206C1328.57 478.206 1327.8 477.438 1327.8 476.498V459.251C1327.8 444.736 1315.93 432.868 1301.42 432.868C1286.9 432.868 1275.03 444.736 1275.03 459.251V476.498C1275.03 477.438 1274.26 478.206 1273.33 478.206C1272.39 478.206 1271.62 477.438 1271.62 476.498V459.251C1271.62 442.772 1285.02 429.453 1301.42 429.453C1317.81 429.453 1331.21 442.858 1331.21 459.251V476.498C1331.21 477.438 1330.45 478.206 1329.51 478.206Z" fill="#9F9FA0"/>
<path d="M1300.9 538.059C1297.15 538.059 1294.07 534.985 1294.07 531.229V526.02C1292.02 524.142 1290.91 521.495 1290.91 518.763V510.822C1290.91 505.272 1295.44 500.832 1300.9 500.832C1306.37 500.832 1310.89 505.358 1310.89 510.822V518.763C1310.89 521.58 1309.78 524.142 1307.73 526.02V531.229C1307.73 534.985 1304.75 538.059 1300.9 538.059ZM1300.9 504.077C1297.23 504.077 1294.33 507.065 1294.33 510.651V518.592C1294.33 520.641 1295.27 522.52 1296.89 523.8C1297.32 524.142 1297.57 524.654 1297.57 525.166V531.143C1297.57 533.022 1299.11 534.558 1300.99 534.558C1302.87 534.558 1304.4 533.022 1304.4 531.143V525.166C1304.4 524.654 1304.66 524.142 1305.09 523.8C1306.71 522.52 1307.65 520.641 1307.65 518.592V510.651C1307.56 507.065 1304.57 504.077 1300.9 504.077Z" fill="#9F9FA0"/>
<path d="M844.426 334.279C844.17 334.279 843.999 334.279 843.743 334.109C843.145 333.853 842.718 333.255 842.718 332.572V127.91C842.718 126.971 843.487 126.203 844.426 126.203H991.625C992.564 126.203 993.333 126.971 993.333 127.91V295.516C993.333 296.455 992.564 297.224 991.625 297.224H882.25L845.621 333.853C845.28 334.109 844.853 334.279 844.426 334.279ZM846.133 129.618V328.473L880.286 294.321C880.628 293.979 881.055 293.808 881.482 293.808H989.917V129.618H846.133Z" fill="#9F9FA0"/>
<path d="M971.902 154.72H864.149C863.21 154.72 862.441 153.952 862.441 153.013C862.441 152.073 863.21 151.305 864.149 151.305H971.902C972.841 151.305 973.609 152.073 973.609 153.013C973.609 153.952 972.841 154.72 971.902 154.72Z" fill="#9F9FA0"/>
<path d="M971.645 179.823H863.893C862.954 179.823 862.185 179.054 862.185 178.115C862.185 177.176 862.954 176.407 863.893 176.407H971.645C972.585 176.407 973.353 177.176 973.353 178.115C973.353 179.054 972.585 179.823 971.645 179.823Z" fill="#9F9FA0"/>
<path d="M971.304 205.011H863.551C862.612 205.011 861.844 204.242 861.844 203.303C861.844 202.364 862.612 201.595 863.551 201.595H971.304C972.243 201.595 973.012 202.364 973.012 203.303C973.012 204.242 972.243 205.011 971.304 205.011Z" fill="#9F9FA0"/>
<path d="M971.048 230.113H863.295C862.356 230.113 861.588 229.345 861.588 228.405C861.588 227.466 862.356 226.698 863.295 226.698H971.048C971.987 226.698 972.755 227.466 972.755 228.405C972.755 229.345 971.987 230.113 971.048 230.113Z" fill="#9F9FA0"/>
<path d="M613.125 462.268H367.394C366.455 462.268 365.687 461.499 365.687 460.56V423.504C365.687 422.565 366.455 421.796 367.394 421.796H613.039C613.979 421.796 614.747 422.565 614.747 423.504V460.56C614.833 461.499 614.064 462.268 613.125 462.268ZM369.102 458.852H611.332V425.212H369.102V458.852Z" fill="#9F9FA0"/>
<path d="M613.125 462.268H367.394C366.455 462.268 365.687 461.499 365.687 460.56V423.504C365.687 422.565 366.455 421.796 367.394 421.796H613.039C613.979 421.796 614.747 422.565 614.747 423.504V460.56C614.833 461.499 614.064 462.268 613.125 462.268ZM369.102 458.852H611.332V425.212H369.102V458.852Z" fill="#9F9FA0"/>
<path d="M613.125 522.974H367.394C366.455 522.974 365.687 522.206 365.687 521.267V484.211C365.687 483.271 366.455 482.503 367.394 482.503H613.039C613.979 482.503 614.747 483.271 614.747 484.211V521.267C614.833 522.206 614.064 522.974 613.125 522.974ZM369.102 519.559H611.332V485.918H369.102V519.559Z" fill="#9F9FA0"/>
<path d="M613.125 522.974H367.394C366.455 522.974 365.687 522.206 365.687 521.267V484.211C365.687 483.271 366.455 482.503 367.394 482.503H613.039C613.979 482.503 614.747 483.271 614.747 484.211V521.267C614.833 522.206 614.064 522.974 613.125 522.974ZM369.102 519.559H611.332V485.918H369.102V519.559Z" fill="#9F9FA0"/>
<path d="M523.552 963.044C523.21 963.044 522.783 962.873 522.527 962.702L447.561 921.89L446.964 921.975C446.451 922.06 445.939 921.89 445.598 921.548C445.256 921.207 445 920.78 445 920.267L445.256 802.098C445.256 801.244 445.854 800.561 446.708 800.391L556.168 785.022C556.68 784.936 557.192 785.107 557.534 785.449C557.875 785.79 558.132 786.217 558.132 786.729L558.046 837.617L632.158 827.201C632.67 827.115 633.183 827.286 633.524 827.628C633.866 827.969 634.122 828.396 634.122 828.908L633.866 946.053C633.866 946.907 633.268 947.59 632.414 947.761L524.064 962.959C523.808 963.044 523.637 963.044 523.552 963.044ZM525.345 910.961L525.259 959.373L630.365 944.601L630.536 830.872L557.961 841.033L557.875 904.813C557.875 905.667 557.278 906.35 556.424 906.521L525.345 910.961ZM453.197 921.121L521.844 958.433L521.929 911.388L453.197 921.121ZM449.013 805.514L448.842 918.304L521.929 907.972L522.015 845.131L449.013 805.514ZM525.516 845.729L525.43 907.545L554.46 903.447L554.546 841.63L525.516 845.729ZM451.916 803.208L524.064 842.484L554.546 838.215L554.631 788.779L451.916 803.208Z" fill="#9F9FA0"/>
<path d="M632.585 948.273C632.329 948.273 631.987 948.187 631.731 948.102L555.229 906.521C554.716 906.179 554.375 905.667 554.375 904.984L554.631 786.815C554.631 786.217 554.972 785.619 555.485 785.363C555.997 785.022 556.68 785.022 557.192 785.363L633.695 826.944C634.207 827.286 634.549 827.798 634.549 828.481L634.293 946.651C634.293 947.248 633.951 947.846 633.439 948.102C633.183 948.187 632.841 948.273 632.585 948.273ZM557.79 903.959L630.877 943.662L631.048 829.421L557.961 789.632L557.79 903.959Z" fill="#9F9FA0"/>
<path d="M992.845 629.776C946.654 629.776 909 592.208 909 545.931C909 499.739 946.568 462.085 992.76 462C992.931 462 993.102 462 993.187 462.085C1039.21 462.256 1076.61 499.824 1076.61 545.931C1076.69 592.208 1039.04 629.776 992.845 629.776ZM992.419 465.501C948.191 465.757 912.415 501.788 912.415 546.016C912.415 590.33 948.532 626.446 992.845 626.446C1037.16 626.446 1073.28 590.33 1073.28 546.016C1073.28 501.703 1037.16 465.586 992.845 465.586C992.675 465.501 992.504 465.501 992.419 465.501ZM981.148 575.217C980.721 575.217 980.294 575.046 979.953 574.705L948.361 543.028C947.678 542.345 947.678 541.32 948.361 540.637C949.044 539.954 950.069 539.954 950.752 540.637L981.148 571.119L1032.04 520.231H1003.95C1003.01 520.231 1002.24 519.462 1002.24 518.523C1002.24 517.584 1003.01 516.815 1003.95 516.815H1036.22C1036.48 516.815 1036.65 516.901 1036.9 516.986C1037.07 517.072 1037.24 517.157 1037.42 517.328C1037.59 517.499 1037.67 517.669 1037.76 517.84C1037.84 518.011 1037.93 518.267 1037.93 518.523V550.712C1037.93 551.651 1037.16 552.42 1036.22 552.42C1035.28 552.42 1034.51 551.651 1034.51 550.712V522.621L982.429 574.705C982.002 575.046 981.575 575.217 981.148 575.217Z" fill="#9F9FA0"/>
<path d="M1365.39 947.513H1196.16C1195.22 947.513 1194.45 946.744 1194.45 945.805V795.874L1157.48 758.903C1156.97 758.391 1156.88 757.708 1157.14 757.025C1157.4 756.427 1157.99 756 1158.68 756H1365.39C1366.33 756 1367.1 756.768 1367.1 757.708V945.805C1367.1 946.744 1366.33 947.513 1365.39 947.513ZM1197.87 944.097H1363.68V759.415H1162.78L1197.35 793.995C1197.7 794.337 1197.87 794.764 1197.87 795.191V944.097Z" fill="#9F9FA0"/>
<path d="M1334.14 789.043H1288.71C1287.77 789.043 1287.01 788.274 1287.01 787.335C1287.01 786.396 1287.77 785.628 1288.71 785.628H1334.14C1335.08 785.628 1335.85 786.396 1335.85 787.335C1335.85 788.274 1335.08 789.043 1334.14 789.043Z" fill="#9F9FA0"/>
<path d="M1333.8 814.401H1288.71C1287.77 814.401 1287.01 813.633 1287.01 812.694C1287.01 811.755 1287.77 810.986 1288.71 810.986H1333.8C1334.74 810.986 1335.5 811.755 1335.5 812.694C1335.5 813.633 1334.74 814.401 1333.8 814.401Z" fill="#9F9FA0"/>
<path d="M1333.54 839.76H1288.8C1287.86 839.76 1287.09 838.992 1287.09 838.052C1287.09 837.113 1287.86 836.345 1288.8 836.345H1333.54C1334.48 836.345 1335.25 837.113 1335.25 838.052C1335.25 838.992 1334.48 839.76 1333.54 839.76Z" fill="#9F9FA0"/>
<path d="M1333.2 865.204H1224.42C1223.48 865.204 1222.71 864.436 1222.71 863.496C1222.71 862.557 1223.48 861.789 1224.42 861.789H1333.2C1334.14 861.789 1334.91 862.557 1334.91 863.496C1334.91 864.436 1334.14 865.204 1333.2 865.204Z" fill="#9F9FA0"/>
<path d="M1333.2 891.672H1224.42C1223.48 891.672 1222.71 890.904 1222.71 889.965C1222.71 889.026 1223.48 888.257 1224.42 888.257H1333.2C1334.14 888.257 1334.91 889.026 1334.91 889.965C1334.91 890.904 1334.14 891.672 1333.2 891.672Z" fill="#9F9FA0"/>
<path d="M1333.2 918.056H1224.42C1223.48 918.056 1222.71 917.287 1222.71 916.348C1222.71 915.409 1223.48 914.64 1224.42 914.64H1333.2C1334.14 914.64 1334.91 915.409 1334.91 916.348C1334.91 917.287 1334.14 918.056 1333.2 918.056Z" fill="#9F9FA0"/>
<path d="M1269.93 835.32C1269.5 835.32 1269.08 835.149 1268.73 834.808L1252.17 818.244C1244.4 824.818 1232.79 824.391 1225.45 817.048C1217.76 809.364 1217.76 796.813 1225.45 789.043C1233.13 781.359 1245.68 781.359 1253.45 789.043C1260.79 796.386 1261.14 807.998 1254.65 815.768L1271.21 832.332C1271.89 833.015 1271.89 834.039 1271.21 834.723C1270.87 835.149 1270.36 835.32 1269.93 835.32ZM1239.45 786.738C1235.26 786.738 1231.08 788.36 1227.84 791.519C1221.43 797.923 1221.43 808.254 1227.84 814.658C1234.24 821.061 1244.57 821.061 1250.98 814.658C1257.38 808.254 1257.38 797.923 1250.98 791.519C1247.82 788.275 1243.63 786.738 1239.45 786.738Z" fill="#9F9FA0"/>
<path d="M968.763 909.763H933.757L886.882 862.888L840.007 909.763H805V874.757L851.875 827.882L805 781.007V746H840.007L886.882 792.875L933.757 746H968.763V781.007L921.888 827.882L968.763 874.757V909.763ZM935.208 906.348H965.348V876.208L917.107 827.967L965.348 779.726V749.586H935.208L886.967 797.827L838.641 749.501H808.501V779.641L856.742 827.882L808.501 876.123V906.263H838.641L886.882 858.022L935.208 906.348Z" fill="#9F9FA0"/>
<path d="M244.708 885.41C244.281 885.41 243.854 885.239 243.512 884.898C242.829 884.215 242.829 883.19 243.512 882.507L403.604 722.415H373.806C372.867 722.415 372.098 721.647 372.098 720.708C372.098 719.768 372.867 719 373.806 719H408.727C409.154 719 409.581 719.171 409.923 719.512C410.264 719.854 410.435 720.281 410.435 720.708V755.202C410.435 756.141 409.666 756.91 408.727 756.91C407.788 756.91 407.02 756.141 407.02 755.202V723.867L245.988 884.983C245.647 885.239 245.22 885.41 244.708 885.41Z" fill="#9F9FA0"/>
<path d="M772.879 672.596H582.988C582.049 672.596 581.281 671.828 581.281 670.888V555.708C581.281 554.768 582.049 554 582.988 554H772.879C773.818 554 774.586 554.768 774.586 555.708V670.888C774.586 671.828 773.818 672.596 772.879 672.596ZM584.696 669.181H771.171V557.415H584.696V669.181Z" fill="#9F9FA0"/>
<path d="M772.879 672.596H582.988C582.049 672.596 581.281 671.828 581.281 670.888V555.708C581.281 554.768 582.049 554 582.988 554H772.879C773.818 554 774.586 554.768 774.586 555.708V670.888C774.586 671.828 773.818 672.596 772.879 672.596ZM584.696 669.181H771.171V557.415H584.696V669.181Z" fill="#9F9FA0"/>
<path d="M773.562 695.137H581.708C580.768 695.137 580 694.369 580 693.429C580 692.49 580.768 691.722 581.708 691.722H773.562C774.501 691.722 775.269 692.49 775.269 693.429C775.269 694.369 774.501 695.137 773.562 695.137Z" fill="#9F9FA0"/>
<path d="M773.562 717.593H581.708C580.768 717.593 580 716.824 580 715.885C580 714.946 580.768 714.177 581.708 714.177H773.562C774.501 714.177 775.269 714.946 775.269 715.885C775.269 716.824 774.501 717.593 773.562 717.593Z" fill="#9F9FA0"/>
<path d="M773.562 740.048H581.708C580.768 740.048 580 739.28 580 738.341C580 737.401 580.768 736.633 581.708 736.633H773.562C774.501 736.633 775.269 737.401 775.269 738.341C775.269 739.28 774.501 740.048 773.562 740.048Z" fill="#9F9FA0"/>
<path d="M658.145 192.163H467.657C466.974 192.163 466.376 191.736 466.12 191.138C465.864 190.541 466.035 189.772 466.462 189.26L499.676 156.046C500.017 155.705 500.444 155.534 500.871 155.534H657.462L703.142 109.854C703.483 109.513 703.91 109.342 704.337 109.342H737.551C738.234 109.342 738.832 109.769 739.088 110.367C739.344 110.964 739.173 111.733 738.746 112.245L659.341 191.651C658.999 191.992 658.572 192.163 658.145 192.163ZM471.756 188.748H657.377L733.367 112.757H705.02L659.341 158.437C658.999 158.778 658.572 158.949 658.145 158.949H501.554L471.756 188.748Z" fill="#9F9FA0"/>
<path d="M500.871 159.035H467.657C466.974 159.035 466.376 158.608 466.12 158.01C465.864 157.412 466.035 156.644 466.462 156.132L499.676 122.918C500.017 122.576 500.444 122.406 500.871 122.406H534.085C535.024 122.406 535.792 123.174 535.792 124.113C535.792 125.052 535.024 125.821 534.085 125.821H501.639L471.756 155.619H500.786C501.725 155.619 502.493 156.388 502.493 157.327C502.493 158.266 501.81 159.035 500.871 159.035Z" fill="#9F9FA0"/>
<path d="M704.337 112.757C703.91 112.757 703.483 112.587 703.142 112.245C702.459 111.562 702.459 110.537 703.142 109.854L733.367 79.629H705.02L672.319 112.33C671.636 113.014 670.611 113.014 669.928 112.33C669.245 111.647 669.245 110.623 669.928 109.94L703.142 76.726C703.483 76.3845 703.91 76.2137 704.337 76.2137H737.551C738.234 76.2137 738.832 76.6407 739.088 77.2383C739.344 77.836 739.173 78.6045 738.746 79.1167L705.533 112.33C705.191 112.587 704.764 112.757 704.337 112.757Z" fill="#9F9FA0"/>
<path d="M500.871 125.821H467.657C466.974 125.821 466.376 125.394 466.12 124.796C465.864 124.199 466.035 123.43 466.462 122.918L545.868 43.5123C546.209 43.1708 546.636 43 547.063 43H737.551C738.234 43 738.832 43.4269 739.088 44.0246C739.344 44.6223 739.173 45.3907 738.746 45.903L705.533 79.1167C704.849 79.7998 703.825 79.7998 703.142 79.1167C702.459 78.4337 702.459 77.4091 703.142 76.726L733.453 46.4153H547.746L471.756 122.406H500.786C501.725 122.406 502.493 123.174 502.493 124.113C502.493 125.052 501.81 125.821 500.871 125.821Z" fill="#9F9FA0"/>
<path d="M658.145 125.821H533.999C533.06 125.821 532.292 125.052 532.292 124.113C532.292 123.174 533.06 122.406 533.999 122.406H657.377L669.928 109.854C670.611 109.171 671.636 109.171 672.319 109.854C673.002 110.537 673.002 111.562 672.319 112.245L659.255 125.309C658.999 125.65 658.572 125.821 658.145 125.821Z" fill="#9F9FA0"/>
</g>
</svg>
