{
    "accessors": {
        "accessor_16": {
            "bufferView": "bufferView_22",
            "byteOffset": 0,
            "byteStride": 0,
            "componentType": 5123,
            "count": 2901,
            "type": "SCALAR"
        },
        "accessor_18": {
            "bufferView": "bufferView_23",
            "byteOffset": 0,
            "byteStride": 12,
            "componentType": 5126,
            "count": 2869,
            "max": [
                1.36719,
                0.851562,
                0.984375
            ],
            "min": [
                -1.36719,
                -0.851562,
                -0.984375
            ],
            "type": "VEC3"
        },
        "accessor_20": {
            "bufferView": "bufferView_23",
            "byteOffset": 34428,
            "byteStride": 12,
            "componentType": 5126,
            "count": 2869,
            "max": [
                1,
                0.993195,
                1
            ],
            "min": [
                -1,
                -1,
                -0.994757
            ],
            "type": "VEC3"
        }
    },
    "animations": {},
    "asset": {
        "generator": "collada2gltf@11bf28f97f1b5380fbefacf862ce7c597873d368",
        "premultipliedAlpha": true,
        "profile": {
            "api": "WebGL",
            "version": "1.0.2"
        },
        "version": 1
    },
    "bufferViews": {
        "bufferView_22": {
            "buffer": "suzanne",
            "byteLength": 5804,
            "byteOffset": 0,
            "target": 34963
        },
        "bufferView_23": {
            "buffer": "suzanne",
            "byteLength": 68856,
            "byteOffset": 5804,
            "target": 34962
        }
    },
    "buffers": {
        "suzanne": {
            "byteLength": 74660,
            "type": "arraybuffer",
            "uri": "data:application/octet-stream;base64,"
        }
    },
    "cameras": {
        "Camera-camera": {
            "name": "Camera",
            "perspective": {
                "aspect_ratio": 1.77778,
                "yfov": 0.482375,
                "zfar": 100,
                "znear": 0.1
            },
            "type": "perspective"
        }
    },
    "materials": {
        "Material_001-effect": {
            "name": "Material_001",
            "technique": "technique1",
            "values": {
                "ambient": [
                    0,
                    0,
                    0,
                    1
                ],
                "diffuse": [
                    0.0568433,
                    0.562286,
                    0.0347009,
                    1
                ],
                "emission": [
                    0,
                    0,
                    0,
                    1
                ],
                "shininess": 50,
                "specular": [
                    0.030154,
                    0.231429,
                    0.056027,
                    1
                ]
            }
        }
    },
    "meshes": {
        "Suzanne-mesh": {
            "name": "Suzanne",
            "primitives": [
                {
                    "attributes": {
                        "NORMAL": "accessor_20",
                        "POSITION": "accessor_18"
                    },
                    "indices": "accessor_16",
                    "material": "Material_001-effect",
                    "mode": 4
                }
            ]
        }
    },
    "nodes": {
        "Camera": {
            "camera": "Camera-camera",
            "children": [],
            "matrix": [
                0.68588,
                0.727634,
                -0.0108168,
                0,
                -0.31737,
                0.312469,
                0.895343,
                0,
                0.654862,
                -0.610666,
                0.445245,
                0,
                7.48113,
                -6.50764,
                5.34367,
                1
            ],
            "name": "Camera"
        },
        "Lamp": {
            "children": [],
            "matrix": [
                -0.290865,
                0.955171,
                -0.0551891,
                0,
                -0.771101,
                -0.199883,
                0.604525,
                0,
                0.566393,
                0.218391,
                0.794672,
                0,
                4.07624,
                1.00545,
                5.90386,
                1
            ],
            "name": "Lamp"
        },
        "Suzanne": {
            "children": [],
            "matrix": [
                1,
                0,
                0,
                0,
                0,
                1,
                0,
                0,
                0,
                0,
                1,
                0,
                0,
                0,
                0,
                1
            ],
            "meshes": [
                "Suzanne-mesh"
            ],
            "name": "Suzanne"
        },
        "node_3": {
            "children": [
                "Camera",
                "Lamp",
                "Suzanne"
            ],
            "matrix": [
                1,
                0,
                0,
                0,
                0,
                0,
                -1,
                0,
                0,
                1,
                0,
                0,
                0,
                0,
                0,
                1
            ],
            "name": "Y_UP_Transform"
        }
    },
    "programs": {
        "program_0": {
            "attributes": [
                "a_normal",
                "a_position"
            ],
            "fragmentShader": "suzanne0FS",
            "vertexShader": "suzanne0VS"
        }
    },
    "scene": "defaultScene",
    "scenes": {
        "defaultScene": {
            "nodes": [
                "node_3"
            ]
        }
    },
    "shaders": {
        "suzanne0FS": {
            "type": 35632,
            "uri": "data:text/plain;base64,"
        },
        "suzanne0VS": {
            "type": 35633,
            "uri": "data:text/plain;base64,"
        }
    },
    "skins": {},
    "techniques": {
        "technique1": {
            "attributes": {
                "a_normal": "normal",
                "a_position": "position"
            },
            "parameters": {
                "ambient": {
                    "type": 35666
                },
                "diffuse": {
                    "type": 35666
                },
                "emission": {
                    "type": 35666
                },
                "light0Color": {
                    "type": 35665,
                    "value": [
                        1,
                        1,
                        1
                    ]
                },
                "light0ConstantAttenuation": {
                    "type": 5126,
                    "value": 1
                },
                "light0LinearAttenuation": {
                    "type": 5126,
                    "value": 0
                },
                "light0QuadraticAttenuation": {
                    "type": 5126,
                    "value": 0.00111109
                },
                "light0Transform": {
                    "node": "Lamp",
                    "semantic": "MODELVIEW",
                    "type": 35676
                },
                "modelViewMatrix": {
                    "semantic": "MODELVIEW",
                    "type": 35676
                },
                "normal": {
                    "semantic": "NORMAL",
                    "type": 35665
                },
                "normalMatrix": {
                    "semantic": "MODELVIEWINVERSETRANSPOSE",
                    "type": 35675
                },
                "position": {
                    "semantic": "POSITION",
                    "type": 35665
                },
                "projectionMatrix": {
                    "semantic": "PROJECTION",
                    "type": 35676
                },
                "shininess": {
                    "type": 5126
                },
                "specular": {
                    "type": 35666
                }
            },
            "program": "program_0",
            "states": {
                "enable": [
                    2929,
                    2884
                ]
            },
            "uniforms": {
                "u_ambient": "ambient",
                "u_diffuse": "diffuse",
                "u_emission": "emission",
                "u_light0Color": "light0Color",
                "u_light0ConstantAttenuation": "light0ConstantAttenuation",
                "u_light0LinearAttenuation": "light0LinearAttenuation",
                "u_light0QuadraticAttenuation": "light0QuadraticAttenuation",
                "u_light0Transform": "light0Transform",
                "u_modelViewMatrix": "modelViewMatrix",
                "u_normalMatrix": "normalMatrix",
                "u_projectionMatrix": "projectionMatrix",
                "u_shininess": "shininess",
                "u_specular": "specular"
            }
        }
    }
}