<?xml version="1.0" encoding="UTF-8"?><svg version="1.1" viewBox="0 0 24 24" xmlns="http://www.w3.org/2000/svg" xmlns:xlink="http://www.w3.org/1999/xlink"><!--Generated by IJSVG (https://github.com/iconjar/IJSVG)--><path d="M0,0h24v24h-24Z" fill="none"></path><path fill="#000" d="M9,20c0,-0.552 -0.447,-1 -1,-1h-6c-0.553,0 -1,0.448 -1,1v2h-1v2h10v-2h-1v-2Zm-6,2v-1h4v1h-4Z"></path><path d="M22.293,19.707l1.414,-1.414l-7.793,-7.793l1.086,-1.086l0.293,0.292c0.195,0.197 0.451,0.294 0.707,0.294c0.256,0 0.512,-0.097 0.707,-0.293l2,-2c0.391,-0.39 0.391,-1.023 0,-1.414l-6,-6c-0.391,-0.39 -1.023,-0.39 -1.414,0l-2,2c-0.391,0.39 -0.391,1.024 0,1.414l0.293,0.293l-3.586,3.586l-0.293,-0.293c-0.391,-0.39 -1.023,-0.39 -1.414,0l-2,2c-0.391,0.39 -0.391,1.024 0,1.414l6,6c0.195,0.196 0.451,0.293 0.707,0.293c0.256,0 0.512,-0.097 0.707,-0.293l2,-2c0.391,-0.39 0.391,-1.023 0,-1.414l-0.293,-0.293l1.086,-1.086l7.793,7.793Zm-8.293,-17.292l4.586,4.585l-0.586,0.586l-4.586,-4.586l0.586,-0.585Zm-3,12.171l-4.586,-4.586l0.586,-0.585l4.586,4.585l-0.586,0.586Zm2,-9.171l2.586,2.585l-3.586,3.586l-2.586,-2.586l3.586,-3.585Z" fill="#000"></path></svg>
