<?xml version="1.0" encoding="UTF-8"?>
<svg version="1.1" viewBox="0 0 24 24" xmlns="http://www.w3.org/2000/svg" xmlns:xlink="http://www.w3.org/1999/xlink">
    <path d="M14.4918033,8.38251366 L8.98360656,10.8306011 L8.98360656,14.5027322 C8.98360656,17.8994536 11.3337705,21.075847 14.4918033,21.8469945 C17.6498361,21.075847 20,17.8994536 20,14.5027322 L20,10.8306011 L14.4918033,8.38251366 Z M18.0036066,14.54726 C18.0036066,16.9575869 16.5093494,19.1812735 14.4936066,19.8425137 C12.4778637,19.1812735 10.9836066,16.9575869 10.9836066,14.54726 L10.9836066,12.0409466 L14.4936066,10.3825137 L18.0036066,12.0409466 L18.0036066,14.54726 Z M16.5901639,7.6424385 L14.4,6.7322405 L12.146524,7.66875 L11.0108333,7.66875 L11.0108333,4 L6,4 L6,15.74 L7.58317905,15.74 C7.72936367,16.4306768 7.96005086,17.1013654 8.26439965,17.7377049 L5.56590164,17.7377049 C4.70032787,17.7377049 4,17.0295082 4,16.1639344 L4,3.57377049 C4,2.70819672 4.70819672,2 5.57377049,2 L11.8688525,2 L16.5901639,6.72131148 L16.5901639,7.6424385 Z"></path>
</svg>
