<svg width="280" height="220" xmlns="http://www.w3.org/2000/svg">
 <g>
  <title>background</title>
  <rect x="-1" y="-1" width="282" height="222" id="canvas_background" fill="none"/>
 </g>

 <g>
  <title>Layer 1</title>
  <g stroke="null" style="vector-effect: non-scaling-stroke;" transform="translate(1.9980000257492065,0) scale(1,0.9924830794334412) translate(-1.9980000257492065,0) translate(1.9980000257492065,0) scale(0.9819213151931763,0.9848522543907166) translate(-1.9980000257492065,0) " id="svgg">
   <path stroke="null" style="vector-effect: non-scaling-stroke;" id="path0" fill="#000000" fill-rule="evenodd"/>
   <path stroke="null" style="vector-effect: non-scaling-stroke;" id="path1" d="m128.698992,2.567595c0.199633,0.212288 0.392722,0.364162 0.429539,0.336472c0.095726,-0.069644 -0.499902,-0.722451 -0.659445,-0.722451c-0.072817,0 0.03109,0.17369 0.229906,0.385978m3.27268,3.356333c0.199633,0.212288 0.392722,0.364162 0.429539,0.336472c0.095726,-0.069644 -0.499902,-0.722451 -0.659445,-0.722451c-0.072817,0 0.03109,0.17369 0.229906,0.385978m3.27268,3.356333c0.199633,0.212288 0.392722,0.364162 0.429539,0.336472c0.095726,-0.069644 -0.499902,-0.722451 -0.659445,-0.722451c-0.072817,0 0.03109,0.17369 0.229906,0.385978m3.27268,3.356333c0.199633,0.212288 0.392722,0.364162 0.429539,0.336472c0.095726,-0.069644 -0.499902,-0.722451 -0.659445,-0.722451c-0.072817,0 0.03109,0.17369 0.229906,0.385978m3.27268,3.356333c0.199633,0.212288 0.392722,0.364162 0.429539,0.336472c0.095726,-0.069644 -0.499902,-0.722451 -0.659445,-0.722451c-0.072817,0 0.03109,0.17369 0.229906,0.385978m3.27268,3.356333c0.199633,0.212288 0.392722,0.364162 0.429539,0.336472c0.095726,-0.069644 -0.499902,-0.722451 -0.659445,-0.722451c-0.072817,0 0.03109,0.17369 0.229906,0.385978m3.27268,3.356333c0.199633,0.212288 0.392722,0.364162 0.429539,0.336472c0.095726,-0.069644 -0.499902,-0.722451 -0.659445,-0.722451c-0.072817,0 0.03109,0.17369 0.229906,0.385978m3.27268,3.356333c0.199633,0.212288 0.392722,0.364162 0.429539,0.336472c0.095726,-0.069644 -0.499902,-0.722451 -0.659445,-0.722451c-0.072817,0 0.03109,0.17369 0.229906,0.385978m3.27268,3.356333c0.199633,0.212288 0.392722,0.364162 0.429539,0.336472c0.095726,-0.069644 -0.499902,-0.722451 -0.659445,-0.722451c-0.072817,0 0.03109,0.17369 0.229906,0.385978" fill="#7f7f7f" fill-rule="evenodd"/>
   <path stroke="null" style="vector-effect: non-scaling-stroke;" id="path2" d="m127.99782,2.475295c0.327268,0.167817 0.695445,0.545404 0.859079,0.881037c0.180816,0.372553 0.285541,0.473243 0.28636,0.276897c0,-0.40276 -1.022713,-1.451614 -1.415434,-1.451614c-0.191452,0.000839 -0.093271,0.108242 0.269996,0.293679m-0.070363,0.893624c0.347722,0.394369 0.379631,0.398565 0.328904,0.043632c-0.022091,-0.154391 -0.169361,-0.299553 -0.327268,-0.323047c-0.272451,-0.041115 -0.272451,-0.02769 -0.001636,0.279415m3.343043,2.462709c0.327268,0.167817 0.695445,0.545404 0.859079,0.881037c0.180816,0.372553 0.285541,0.473243 0.28636,0.276897c0,-0.40276 -1.022713,-1.451614 -1.415434,-1.451614c-0.191452,0.000839 -0.093271,0.108242 0.269996,0.293679m-0.070363,0.893624c0.347722,0.394369 0.379631,0.398565 0.328904,0.043632c-0.022091,-0.154391 -0.169361,-0.299553 -0.327268,-0.323047c-0.272451,-0.041115 -0.272451,-0.02769 -0.001636,0.279415m3.343043,2.462709c0.327268,0.167817 0.695445,0.545404 0.859079,0.881037c0.180816,0.372553 0.285541,0.473243 0.28636,0.276897c0,-0.40276 -1.022713,-1.451614 -1.415434,-1.451614c-0.191452,0.000839 -0.093271,0.108242 0.269996,0.293679m-0.070363,0.893624c0.347722,0.394369 0.379631,0.398565 0.328904,0.043632c-0.022091,-0.154391 -0.169361,-0.299553 -0.327268,-0.323047c-0.272451,-0.041115 -0.272451,-0.02769 -0.001636,0.279415m3.343043,2.462709c0.327268,0.167817 0.695445,0.545404 0.859079,0.881037c0.180816,0.372553 0.285541,0.473243 0.28636,0.276897c0,-0.40276 -1.022713,-1.451614 -1.415434,-1.451614c-0.191452,0.000839 -0.093271,0.108242 0.269996,0.293679m-0.070363,0.893624c0.347722,0.394369 0.379631,0.398565 0.328904,0.043632c-0.022091,-0.154391 -0.169361,-0.299553 -0.327268,-0.323047c-0.272451,-0.041115 -0.272451,-0.02769 -0.001636,0.279415m3.343043,2.462709c0.327268,0.167817 0.695445,0.545404 0.859079,0.881037c0.180816,0.372553 0.285541,0.473243 0.28636,0.276897c0,-0.40276 -1.022713,-1.451614 -1.415434,-1.451614c-0.191452,0.000839 -0.093271,0.108242 0.269996,0.293679m-0.070363,0.893624c0.347722,0.394369 0.379631,0.398565 0.328904,0.043632c-0.022091,-0.154391 -0.169361,-0.299553 -0.327268,-0.323047c-0.272451,-0.041115 -0.272451,-0.02769 -0.001636,0.279415m3.343043,2.462709c0.327268,0.167817 0.695445,0.545404 0.859079,0.881037c0.180816,0.372553 0.285541,0.473243 0.28636,0.276897c0,-0.40276 -1.022713,-1.451614 -1.415434,-1.451614c-0.191452,0.000839 -0.093271,0.108242 0.269996,0.293679m-0.070363,0.893624c0.347722,0.394369 0.379631,0.398565 0.328904,0.043632c-0.022091,-0.154391 -0.169361,-0.299553 -0.327268,-0.323047c-0.272451,-0.041115 -0.272451,-0.02769 -0.001636,0.279415m3.343043,2.462709c0.327268,0.167817 0.695445,0.545404 0.859079,0.881037c0.180816,0.372553 0.285541,0.473243 0.28636,0.276897c0,-0.40276 -1.022713,-1.451614 -1.415434,-1.451614c-0.191452,0.000839 -0.093271,0.108242 0.269996,0.293679m-0.070363,0.893624c0.347722,0.394369 0.379631,0.398565 0.328904,0.043632c-0.022091,-0.154391 -0.169361,-0.299553 -0.327268,-0.323047c-0.272451,-0.041115 -0.272451,-0.02769 -0.001636,0.279415m3.343043,2.462709c0.327268,0.167817 0.695445,0.545404 0.859079,0.881037c0.180816,0.372553 0.285541,0.473243 0.28636,0.276897c0,-0.40276 -1.022713,-1.451614 -1.415434,-1.451614c-0.191452,0.000839 -0.093271,0.108242 0.269996,0.293679m-0.070363,0.893624c0.347722,0.394369 0.379631,0.398565 0.328904,0.043632c-0.022091,-0.154391 -0.169361,-0.299553 -0.327268,-0.323047c-0.272451,-0.041115 -0.272451,-0.02769 -0.001636,0.279415m3.343043,2.462709c0.327268,0.167817 0.695445,0.545404 0.859079,0.881037c0.180816,0.372553 0.285541,0.473243 0.28636,0.276897c0,-0.40276 -1.022713,-1.451614 -1.415434,-1.451614c-0.191452,0.000839 -0.093271,0.108242 0.269996,0.293679m-0.070363,0.893624c0.347722,0.394369 0.379631,0.398565 0.328904,0.043632c-0.022091,-0.154391 -0.169361,-0.299553 -0.327268,-0.323047c-0.272451,-0.041115 -0.272451,-0.02769 -0.001636,0.279415m116.124508,6.700079c0,0.323047 0.034363,0.455622 0.075272,0.293679c0.040909,-0.161943 0.040909,-0.425415 0,-0.587358c-0.040909,-0.161104 -0.075272,-0.029368 -0.075272,0.293679" fill="#aaaaaa" fill-rule="evenodd"/>
   <path stroke="null" style="vector-effect: non-scaling-stroke;" id="path3" d="m2.000455,111.083708l0.003273,111.083708l0.50072,0.513519l0.50072,0.513519l133.174353,0l133.174353,0l0.502356,-0.514358l0.501538,-0.515197l-0.006545,-94.258412c-0.005727,-91.194919 -0.027,-95.487669 -0.467993,-95.387818c-0.111271,0.025172 -0.155452,-0.031885 -0.09818,-0.126702c0.293723,-0.487507 3.749673,-0.458979 -58.088435,-0.486668c-36.515746,-0.015943 -56.367006,-0.083069 -56.208281,-0.187955c0.134998,-0.089782 0.161998,-0.163621 0.058908,-0.165299c-0.102271,-0.001678 -0.233997,-0.264311 -0.292905,-0.584841c-0.149725,-0.820623 -0.812443,-1.556499 -1.619158,-1.798155c-0.37554,-0.112437 -0.737171,-0.28361 -0.803443,-0.380105c-0.075272,-0.110759 -0.121089,-0.088943 -0.122726,0.059575c-0.001636,0.179564 -0.081817,0.161943 -0.333813,-0.071322c-0.252815,-0.234943 -0.28145,-0.339829 -0.122726,-0.443036c0.136634,-0.088943 0.143998,-0.136771 0.022091,-0.138449c-0.102271,-0.001678 -0.233997,-0.264311 -0.292905,-0.584841c-0.149725,-0.820623 -0.812443,-1.556499 -1.619158,-1.798155c-0.37554,-0.112437 -0.737171,-0.28361 -0.803443,-0.380105c-0.075272,-0.110759 -0.121089,-0.088943 -0.122726,0.059575c-0.001636,0.179564 -0.081817,0.161943 -0.333813,-0.071322c-0.252815,-0.234943 -0.28145,-0.339829 -0.122726,-0.443036c0.136634,-0.088943 0.143998,-0.136771 0.022091,-0.138449c-0.102271,-0.001678 -0.233997,-0.264311 -0.292905,-0.584841c-0.149725,-0.820623 -0.812443,-1.556499 -1.619158,-1.798155c-0.37554,-0.112437 -0.737171,-0.28361 -0.803443,-0.380105c-0.075272,-0.110759 -0.121089,-0.088943 -0.122726,0.059575c-0.001636,0.179564 -0.081817,0.161943 -0.333813,-0.071322c-0.252815,-0.234943 -0.28145,-0.339829 -0.122726,-0.443036c0.136634,-0.088943 0.143998,-0.136771 0.022091,-0.138449c-0.102271,-0.001678 -0.233997,-0.264311 -0.292905,-0.584841c-0.149725,-0.820623 -0.812443,-1.556499 -1.619158,-1.798155c-0.37554,-0.112437 -0.737171,-0.28361 -0.803443,-0.380105c-0.075272,-0.110759 -0.121089,-0.088943 -0.122726,0.059575c-0.001636,0.179564 -0.081817,0.161943 -0.333813,-0.071322c-0.252815,-0.234943 -0.28145,-0.339829 -0.122726,-0.443036c0.136634,-0.088943 0.143998,-0.136771 0.022091,-0.138449c-0.102271,-0.001678 -0.233997,-0.264311 -0.292905,-0.584841c-0.149725,-0.820623 -0.812443,-1.556499 -1.619158,-1.798155c-0.37554,-0.112437 -0.737171,-0.28361 -0.803443,-0.380105c-0.075272,-0.110759 -0.121089,-0.088943 -0.122726,0.059575c-0.001636,0.179564 -0.081817,0.161943 -0.333813,-0.071322c-0.252815,-0.234943 -0.28145,-0.339829 -0.122726,-0.443036c0.136634,-0.088943 0.143998,-0.136771 0.022091,-0.138449c-0.102271,-0.001678 -0.233997,-0.264311 -0.292905,-0.584841c-0.149725,-0.820623 -0.812443,-1.556499 -1.619158,-1.798155c-0.37554,-0.112437 -0.737171,-0.28361 -0.803443,-0.380105c-0.075272,-0.110759 -0.121089,-0.088943 -0.122726,0.059575c-0.001636,0.179564 -0.081817,0.161943 -0.333813,-0.071322c-0.252815,-0.234943 -0.28145,-0.339829 -0.122726,-0.443036c0.136634,-0.088943 0.143998,-0.136771 0.022091,-0.138449c-0.102271,-0.001678 -0.233997,-0.264311 -0.292905,-0.584841c-0.149725,-0.820623 -0.812443,-1.556499 -1.619158,-1.798155c-0.37554,-0.112437 -0.737171,-0.28361 -0.803443,-0.380105c-0.075272,-0.110759 -0.121089,-0.088943 -0.122726,0.059575c-0.001636,0.179564 -0.081817,0.161943 -0.333813,-0.071322c-0.252815,-0.234943 -0.28145,-0.339829 -0.122726,-0.443036c0.136634,-0.088943 0.143998,-0.136771 0.022091,-0.138449c-0.102271,-0.001678 -0.233997,-0.264311 -0.292905,-0.584841c-0.149725,-0.820623 -0.812443,-1.556499 -1.619158,-1.798155c-0.37554,-0.112437 -0.737171,-0.28361 -0.803443,-0.380105c-0.075272,-0.110759 -0.121089,-0.088943 -0.122726,0.059575c-0.001636,0.179564 -0.081817,0.161943 -0.333813,-0.071322c-0.252815,-0.234943 -0.28145,-0.339829 -0.122726,-0.443036c0.136634,-0.088943 0.143998,-0.136771 0.022091,-0.138449c-0.102271,-0.001678 -0.233997,-0.264311 -0.292905,-0.584841c-0.149725,-0.820623 -0.812443,-1.556499 -1.619158,-1.798155c-0.37554,-0.112437 -0.737171,-0.28361 -0.803443,-0.380105c-0.075272,-0.110759 -0.121089,-0.088943 -0.122726,0.059575c-0.001636,0.180403 -0.079362,0.16446 -0.329723,-0.067966c-0.24136,-0.224035 -0.327268,-0.516875 -0.327268,-1.11682l0,-0.813072l-61.936289,0l-61.936289,0l0.002455,111.083708m126.255907,-107.671157c0.050727,0.354932 0.018818,0.350737 -0.328904,-0.043632c-0.270814,-0.307104 -0.270814,-0.32053 0.001636,-0.279415c0.157907,0.023494 0.305177,0.168656 0.327268,0.323047m3.27268,3.356333c0.050727,0.354932 0.018818,0.350737 -0.328904,-0.043632c-0.270814,-0.307104 -0.270814,-0.32053 0.001636,-0.279415c0.157907,0.023494 0.305177,0.168656 0.327268,0.323047m3.27268,3.356333c0.050727,0.354932 0.018818,0.350737 -0.328904,-0.043632c-0.270814,-0.307104 -0.270814,-0.32053 0.001636,-0.279415c0.157907,0.023494 0.305177,0.168656 0.327268,0.323047m3.27268,3.356333c0.050727,0.354932 0.018818,0.350737 -0.328904,-0.043632c-0.270814,-0.307104 -0.270814,-0.32053 0.001636,-0.279415c0.157907,0.023494 0.305177,0.168656 0.327268,0.323047m3.27268,3.356333c0.050727,0.354932 0.018818,0.350737 -0.328904,-0.043632c-0.270814,-0.307104 -0.270814,-0.32053 0.001636,-0.279415c0.157907,0.023494 0.305177,0.168656 0.327268,0.323047m3.27268,3.356333c0.050727,0.354932 0.018818,0.350737 -0.328904,-0.043632c-0.270814,-0.307104 -0.270814,-0.32053 0.001636,-0.279415c0.157907,0.023494 0.305177,0.168656 0.327268,0.323047m3.27268,3.356333c0.050727,0.354932 0.018818,0.350737 -0.328904,-0.043632c-0.270814,-0.307104 -0.270814,-0.32053 0.001636,-0.279415c0.157907,0.023494 0.305177,0.168656 0.327268,0.323047m3.27268,3.356333c0.050727,0.354932 0.018818,0.350737 -0.328904,-0.043632c-0.270814,-0.307104 -0.270814,-0.32053 0.001636,-0.279415c0.157907,0.023494 0.305177,0.168656 0.327268,0.323047m3.27268,3.356333c0.050727,0.354932 0.018818,0.350737 -0.328904,-0.043632c-0.270814,-0.307104 -0.270814,-0.32053 0.001636,-0.279415c0.157907,0.023494 0.305177,0.168656 0.327268,0.323047m8.666875,39.392439c0.355904,0.375909 1.181438,1.02536 1.833519,1.444062c0.652082,0.417863 1.186347,0.83321 1.186347,0.921313c0,0.159426 3.423223,3.801886 4.990837,5.310558c0.449994,0.432967 1.149529,1.153739 1.554523,1.60181c0.782989,0.866773 14.020162,14.578232 29.426303,30.483054l9.347593,9.649457l0,1.762075l0,1.762075l-7.708798,7.97129c-30.808192,31.859989 -33.553971,34.711194 -34.35005,35.661036c-0.231542,0.276897 -0.806716,0.832371 -1.2788,1.23513c-0.471266,0.40276 -1.152802,1.115142 -1.512796,1.582511c-0.360813,0.468208 -1.197801,1.215832 -1.860519,1.662224c-0.662718,0.446392 -1.47107,1.129406 -1.795883,1.51958c-0.645536,0.772796 -0.621809,0.780347 -1.219073,-0.377587c-0.841079,-1.631178 -0.829624,-1.417212 -0.829624,-15.964397l0,-13.553711l-0.425448,-1.381131c-0.542447,-1.762075 -0.981804,-2.240352 -2.197605,-2.393065c-9.937493,-1.251073 -29.037672,-0.870968 -32.994343,0.656163c-1.523433,0.588197 -3.163863,1.032072 -6.150184,1.663063c-2.801414,0.591554 -3.517313,0.866773 -4.622661,1.772983c-0.799352,0.655324 -1.464524,1.011095 -3.316861,1.772144c-1.2428,0.510163 -1.56925,0.736715 -2.506873,1.739419c-0.593991,0.634347 -1.36798,1.304774 -1.720612,1.489373c-0.794443,0.415346 -1.372071,0.998509 -2.029062,2.049041c-0.278996,0.445553 -0.895078,1.110107 -1.36798,1.476786c-0.707717,0.547921 -1.016985,0.970819 -1.732066,2.365376c-0.478629,0.934739 -1.142984,2.018834 -1.475979,2.409847c-0.91635,1.076544 -1.381071,2.028064 -2.049516,4.194577c-0.37554,1.218349 -0.856624,2.367054 -1.257527,3.003079c-0.990804,1.572442 -1.268982,2.466066 -1.875246,6.015387c-0.538356,3.154953 -1.151165,5.626053 -1.633067,6.582608c-0.125998,0.250886 -0.521992,1.979397 -0.879533,3.840484c-0.673354,3.501494 -0.964622,4.306175 -1.873609,5.177982l-0.431994,0.413668l-0.390267,-0.497576c-0.458175,-0.584002 -0.850897,-1.452453 -1.579068,-3.498977c-0.336268,-0.943969 -0.780534,-1.804868 -1.212528,-2.349433c-0.895896,-1.128567 -1.052167,-1.469235 -1.848246,-4.046898c-0.448357,-1.449936 -0.950714,-2.659894 -1.499706,-3.608058c-0.938441,-1.62027 -1.2788,-2.674158 -1.885064,-5.834985c-0.45163,-2.353628 -0.759262,-3.408356 -1.43507,-4.924579c-2.180423,-4.888499 -2.003698,-20.356998 0.287996,-25.237106c0.390267,-0.830692 0.902442,-2.211823 1.138893,-3.070205c0.692172,-2.516411 1.055439,-3.34962 1.880973,-4.317083c0.427903,-0.502611 1.074257,-1.539718 1.435888,-2.305801c0.431994,-0.914601 1.091439,-1.902202 1.921063,-2.878055c0.694626,-0.817267 1.624067,-1.994501 2.065061,-2.616261c0.477811,-0.674623 1.280436,-1.500281 1.990608,-2.04988c0.653718,-0.505967 1.773793,-1.466717 2.488055,-2.133789c0.714262,-0.667071 1.85561,-1.524614 2.536327,-1.905558c0.680717,-0.381783 1.60525,-1.060601 2.055243,-1.509511c0.92535,-0.923831 1.228073,-1.109268 2.786687,-1.710891c1.232164,-0.47576 1.966881,-0.898658 2.940503,-1.69327c0.965441,-0.788738 1.416252,-0.984245 4.017215,-1.74781c1.30089,-0.380944 2.69587,-0.891945 3.100864,-1.13528c2.195968,-1.316522 2.814505,-1.51035 7.618799,-2.387192c1.534887,-0.280254 3.412587,-0.705669 4.172667,-0.946486c3.961579,-1.254429 6.115003,-1.623626 11.199111,-1.918144c6.009459,-0.349059 18.808911,-0.166138 23.563297,0.337311c1.483342,0.156909 1.715703,0.061253 2.608326,-1.069831l0.50072,-0.634347l0.081817,-13.954793l0.081817,-13.955632l0.605446,-1.300579c0.705263,-1.514545 0.687263,-1.506993 1.52916,-0.617565" fill="#384248" fill-rule="evenodd"/>
   <path stroke="null" style="vector-effect: non-scaling-stroke;" id="path4" d="m125.870578,0.755175c0,0.551278 0.095726,0.853348 0.355904,1.120176c0.280632,0.287806 0.332177,0.302909 0.245451,0.069644c-0.060545,-0.161943 -0.110453,-0.665393 -0.110453,-1.119337c0,-0.621761 -0.060545,-0.825658 -0.245451,-0.825658c-0.181634,0 -0.245451,0.195506 -0.245451,0.755175m1.472706,1.348407c0,0.203058 0.06709,0.220679 0.316632,0.083908c0.458993,-0.251725 0.573537,-0.213966 0.316632,0.105724c-0.204543,0.254242 -0.189815,0.260116 0.163634,0.067127c0.575992,-0.314656 1.13562,0.259277 0.828806,0.849991c-0.188179,0.362484 -0.182452,0.377587 0.065454,0.167817c0.311723,-0.263472 0.34854,-0.146 0.103089,0.324725c-0.133362,0.25592 -0.11618,0.324725 0.081817,0.324725c0.437721,0 0.328904,-1.277924 -0.150543,-1.769626c-0.479448,-0.491703 -1.725521,-0.603301 -1.725521,-0.154391m0.913896,0.391013c-0.048272,0.080552 0.049908,0.273541 0.21927,0.43045c0.363267,0.338151 0.647172,0.056219 0.333813,-0.331438c-0.224179,-0.276897 -0.42463,-0.312139 -0.553083,-0.099012m2.358784,2.96532c0,0.203058 0.06709,0.220679 0.316632,0.083908c0.458993,-0.251725 0.573537,-0.213966 0.316632,0.105724c-0.204543,0.254242 -0.189815,0.260116 0.163634,0.067127c0.575992,-0.314656 1.13562,0.259277 0.828806,0.849991c-0.188179,0.362484 -0.182452,0.377587 0.065454,0.167817c0.311723,-0.263472 0.34854,-0.146 0.103089,0.324725c-0.133362,0.25592 -0.11618,0.324725 0.081817,0.324725c0.437721,0 0.328904,-1.277924 -0.150543,-1.769626c-0.479448,-0.491703 -1.725521,-0.603301 -1.725521,-0.154391m0.913896,0.391013c-0.048272,0.080552 0.049908,0.273541 0.21927,0.43045c0.363267,0.338151 0.647172,0.056219 0.333813,-0.331438c-0.224179,-0.276897 -0.42463,-0.312139 -0.553083,-0.099012m2.358784,2.96532c0,0.203058 0.06709,0.220679 0.316632,0.083908c0.458993,-0.251725 0.573537,-0.213966 0.316632,0.105724c-0.204543,0.254242 -0.189815,0.260116 0.163634,0.067127c0.575992,-0.314656 1.13562,0.259277 0.828806,0.849991c-0.188179,0.362484 -0.182452,0.377587 0.065454,0.167817c0.311723,-0.263472 0.34854,-0.146 0.103089,0.324725c-0.133362,0.25592 -0.11618,0.324725 0.081817,0.324725c0.437721,0 0.328904,-1.277924 -0.150543,-1.769626c-0.479448,-0.491703 -1.725521,-0.603301 -1.725521,-0.154391m0.913896,0.391013c-0.048272,0.080552 0.049908,0.273541 0.21927,0.43045c0.363267,0.338151 0.647172,0.056219 0.333813,-0.331438c-0.224179,-0.276897 -0.42463,-0.312139 -0.553083,-0.099012m2.358784,2.96532c0,0.203058 0.06709,0.220679 0.316632,0.083908c0.458993,-0.251725 0.573537,-0.213966 0.316632,0.105724c-0.204543,0.254242 -0.189815,0.260116 0.163634,0.067127c0.575992,-0.314656 1.13562,0.259277 0.828806,0.849991c-0.188179,0.362484 -0.182452,0.377587 0.065454,0.167817c0.311723,-0.263472 0.34854,-0.146 0.103089,0.324725c-0.133362,0.25592 -0.11618,0.324725 0.081817,0.324725c0.437721,0 0.328904,-1.277924 -0.150543,-1.769626c-0.479448,-0.491703 -1.725521,-0.603301 -1.725521,-0.154391m0.913896,0.391013c-0.048272,0.080552 0.049908,0.273541 0.21927,0.43045c0.363267,0.338151 0.647172,0.056219 0.333813,-0.331438c-0.224179,-0.276897 -0.42463,-0.312139 -0.553083,-0.099012m2.358784,2.96532c0,0.203058 0.06709,0.220679 0.316632,0.083908c0.458993,-0.251725 0.573537,-0.213966 0.316632,0.105724c-0.204543,0.254242 -0.189815,0.260116 0.163634,0.067127c0.575992,-0.314656 1.13562,0.259277 0.828806,0.849991c-0.188179,0.362484 -0.182452,0.377587 0.065454,0.167817c0.311723,-0.263472 0.34854,-0.146 0.103089,0.324725c-0.133362,0.25592 -0.11618,0.324725 0.081817,0.324725c0.437721,0 0.328904,-1.277924 -0.150543,-1.769626c-0.479448,-0.491703 -1.725521,-0.603301 -1.725521,-0.154391m0.913896,0.391013c-0.048272,0.080552 0.049908,0.273541 0.21927,0.43045c0.363267,0.338151 0.647172,0.056219 0.333813,-0.331438c-0.224179,-0.276897 -0.42463,-0.312139 -0.553083,-0.099012m2.358784,2.96532c0,0.203058 0.06709,0.220679 0.316632,0.083908c0.458993,-0.251725 0.573537,-0.213966 0.316632,0.105724c-0.204543,0.254242 -0.189815,0.260116 0.163634,0.067127c0.575992,-0.314656 1.13562,0.259277 0.828806,0.849991c-0.188179,0.362484 -0.182452,0.377587 0.065454,0.167817c0.311723,-0.263472 0.34854,-0.146 0.103089,0.324725c-0.133362,0.25592 -0.11618,0.324725 0.081817,0.324725c0.437721,0 0.328904,-1.277924 -0.150543,-1.769626c-0.479448,-0.491703 -1.725521,-0.603301 -1.725521,-0.154391m0.913896,0.391013c-0.048272,0.080552 0.049908,0.273541 0.21927,0.43045c0.363267,0.338151 0.647172,0.056219 0.333813,-0.331438c-0.224179,-0.276897 -0.42463,-0.312139 -0.553083,-0.099012m2.358784,2.96532c0,0.203058 0.06709,0.220679 0.316632,0.083908c0.458993,-0.251725 0.573537,-0.213966 0.316632,0.105724c-0.204543,0.254242 -0.189815,0.260116 0.163634,0.067127c0.575992,-0.314656 1.13562,0.259277 0.828806,0.849991c-0.188179,0.362484 -0.182452,0.377587 0.065454,0.167817c0.311723,-0.263472 0.34854,-0.146 0.103089,0.324725c-0.133362,0.25592 -0.11618,0.324725 0.081817,0.324725c0.437721,0 0.328904,-1.277924 -0.150543,-1.769626c-0.479448,-0.491703 -1.725521,-0.603301 -1.725521,-0.154391m0.913896,0.391013c-0.048272,0.080552 0.049908,0.273541 0.21927,0.43045c0.363267,0.338151 0.647172,0.056219 0.333813,-0.331438c-0.224179,-0.276897 -0.42463,-0.312139 -0.553083,-0.099012m2.358784,2.96532c0,0.203058 0.06709,0.220679 0.316632,0.083908c0.458993,-0.251725 0.573537,-0.213966 0.316632,0.105724c-0.204543,0.254242 -0.189815,0.260116 0.163634,0.067127c0.575992,-0.314656 1.13562,0.259277 0.828806,0.849991c-0.188179,0.362484 -0.182452,0.377587 0.065454,0.167817c0.311723,-0.263472 0.34854,-0.146 0.103089,0.324725c-0.133362,0.25592 -0.11618,0.324725 0.081817,0.324725c0.437721,0 0.328904,-1.277924 -0.150543,-1.769626c-0.479448,-0.491703 -1.725521,-0.603301 -1.725521,-0.154391m0.913896,0.391013c-0.048272,0.080552 0.049908,0.273541 0.21927,0.43045c0.363267,0.338151 0.647172,0.056219 0.333813,-0.331438c-0.224179,-0.276897 -0.42463,-0.312139 -0.553083,-0.099012m2.358784,2.96532c0,0.203058 0.06709,0.220679 0.316632,0.083908c0.458993,-0.251725 0.573537,-0.213966 0.316632,0.105724c-0.204543,0.254242 -0.189815,0.260116 0.163634,0.067127c0.575992,-0.314656 1.13562,0.259277 0.828806,0.849991c-0.188179,0.362484 -0.182452,0.377587 0.065454,0.167817c0.311723,-0.263472 0.34854,-0.146 0.103089,0.324725c-0.133362,0.25592 -0.11618,0.324725 0.081817,0.324725c0.437721,0 0.328904,-1.277924 -0.150543,-1.769626c-0.479448,-0.491703 -1.725521,-0.603301 -1.725521,-0.154391m0.913896,0.391013c-0.048272,0.080552 0.049908,0.273541 0.21927,0.43045c0.363267,0.338151 0.647172,0.056219 0.333813,-0.331438c-0.224179,-0.276897 -0.42463,-0.312139 -0.553083,-0.099012m115.099341,2.664089c0.309268,0.124184 0.579264,0.401082 0.700354,0.718255c0.06709,0.175368 0.098999,0.147679 0.107998,-0.095655c0.016363,-0.43968 -0.28636,-0.75014 -0.715081,-0.733359c-0.237269,0.00923 -0.264269,0.041954 -0.093271,0.110759m-107.962444,38.263872l-0.605446,1.300579l-0.081817,13.955632l-0.081817,13.954793l-0.50072,0.634347c-0.892623,1.131084 -1.124984,1.22674 -2.608326,1.069831c-4.754386,-0.50345 -17.553838,-0.68637 -23.563297,-0.337311c-5.084109,0.294518 -7.237532,0.663715 -11.199111,1.918144c-0.76008,0.240817 -2.63778,0.666232 -4.172667,0.946486c-4.804294,0.876842 -5.422831,1.07067 -7.618799,2.387192c-0.404994,0.243334 -1.799974,0.754336 -3.100864,1.13528c-2.600963,0.763566 -3.051774,0.959072 -4.017215,1.74781c-0.973622,0.794612 -1.708339,1.21751 -2.940503,1.69327c-1.558614,0.601623 -1.861337,0.78706 -2.786687,1.710891c-0.449994,0.44891 -1.374526,1.127728 -2.055243,1.509511c-0.680717,0.380944 -1.822065,1.238487 -2.536327,1.905558c-0.714262,0.667071 -1.834337,1.627821 -2.488055,2.133789c-0.710172,0.549599 -1.512796,1.375257 -1.990608,2.04988c-0.440994,0.621761 -1.370435,1.798994 -2.065061,2.616261c-0.829624,0.975854 -1.489069,1.963455 -1.921063,2.878055c-0.361631,0.766083 -1.007985,1.80319 -1.435888,2.305801c-0.825534,0.967463 -1.188801,1.800673 -1.880973,4.317083c-0.236451,0.858382 -0.748626,2.239513 -1.138893,3.070205c-2.291694,4.880108 -2.468419,20.348607 -0.287996,25.237106c0.675808,1.516223 0.98344,2.570951 1.43507,4.924579c0.606264,3.160826 0.946623,4.214715 1.885064,5.834985c0.548992,0.948164 1.051348,2.158122 1.499706,3.608058c0.796079,2.577664 0.95235,2.918331 1.848246,4.046898c0.431994,0.544565 0.87626,1.405464 1.212528,2.349433c0.728171,2.046524 1.120893,2.914975 1.579068,3.498977l0.390267,0.497576l0.431994,-0.413668c0.908987,-0.871807 1.200255,-1.676488 1.873609,-5.177982c0.35754,-1.861087 0.753535,-3.589598 0.879533,-3.840484c0.481902,-0.956555 1.094711,-3.427655 1.633067,-6.582608c0.606264,-3.549322 0.884442,-4.442946 1.875246,-6.015387c0.400903,-0.636025 0.881987,-1.78473 1.257527,-3.003079c0.668445,-2.166513 1.133165,-3.118033 2.049516,-4.194577c0.332995,-0.391013 0.997349,-1.475108 1.475979,-2.409847c0.715081,-1.394556 1.024349,-1.817454 1.732066,-2.365376c0.472902,-0.366679 1.088984,-1.031233 1.36798,-1.476786c0.656991,-1.050532 1.234619,-1.633695 2.029062,-2.049041c0.352631,-0.184598 1.12662,-0.855026 1.720612,-1.489373c0.937623,-1.002704 1.264073,-1.229257 2.506873,-1.739419c1.852337,-0.761048 2.517509,-1.11682 3.316861,-1.772144c1.105348,-0.90621 1.821246,-1.181429 4.622661,-1.772983c2.986321,-0.630991 4.626751,-1.074866 6.150184,-1.663063c3.95667,-1.527131 23.056849,-1.907236 32.994343,-0.656163c1.215801,0.152713 1.655158,0.630991 2.197605,2.393065l0.425448,1.381131l0,13.553711c0,14.547186 -0.011454,14.333219 0.829624,15.964397c0.597264,1.157935 0.573537,1.150383 1.219073,0.377587c0.324813,-0.390174 1.133165,-1.073187 1.795883,-1.51958c0.662718,-0.446392 1.499706,-1.194015 1.860519,-1.662224c0.359995,-0.467369 1.04153,-1.179751 1.512796,-1.582511c0.472084,-0.40276 1.047258,-0.958233 1.2788,-1.23513c0.796079,-0.949842 3.541858,-3.801047 34.35005,-35.661036l7.708798,-7.97129l0,-1.762075l0,-1.762075l-9.347593,-9.649457c-15.406142,-15.904822 -28.643314,-29.616281 -29.426303,-30.483054c-0.404994,-0.44807 -1.10453,-1.168843 -1.554523,-1.60181c-1.567614,-1.508672 -4.990837,-5.151132 -4.990837,-5.310558c0,-0.088104 -0.534265,-0.50345 -1.186347,-0.921313c-0.652082,-0.418703 -1.477615,-1.068153 -1.833519,-1.444062c-0.841897,-0.889428 -0.823897,-0.89698 -1.52916,0.617565m-159.575882,152.297797c0,0.295357 0.412358,0.680496 0.641445,0.599105c0.089181,-0.031885 -0.018818,-0.235782 -0.239724,-0.453105c-0.29045,-0.286127 -0.401721,-0.326403 -0.401721,-0.146m267.892593,0.213127c-0.278996,0.297875 -0.318268,0.41199 -0.142362,0.41199c0.287996,0 0.663536,-0.422898 0.584173,-0.657841c-0.03109,-0.09146 -0.229906,0.019299 -0.441812,0.245851" fill="#ffffff" fill-rule="evenodd"/>
  </g>
 </g>
</svg>