<svg width="24" height="22" xmlns="http://www.w3.org/2000/svg">
  <g fill="none" fill-rule="evenodd">
    <path d="M-1-1h24v24H-1z"/>
    <path d="M18.764 6.446a9 9 0 1 0 .087 8.958" stroke="#384248" stroke-linecap="round"/>
    <path d="M11 4a2 2 0 1 1 0-4 2 2 0 0 1 0 4zm4.114 1.337A2 2 0 1 1 17.466 2.1a2 2 0 0 1-2.352 3.236zm0 11.326a2 2 0 1 1 2.352 3.236 2 2 0 0 1-2.352-3.236zM11 18a2 2 0 1 1 0 4 2 2 0 0 1 0-4zm-4.114-1.337A2 2 0 1 1 4.534 19.9a2 2 0 0 1 2.352-3.236zm-2.543-3.5A2 2 0 1 1 .538 14.4a2 2 0 0 1 3.805-1.236zm0-4.326A2 2 0 1 1 .538 7.6a2 2 0 0 1 3.805 1.236zm2.543-3.5A2 2 0 1 1 4.534 2.1a2 2 0 0 1 2.352 3.236zM20.4 13.536V11.62c-2.502 0-4.149.744-5.4 2.38.504-2.336 1.899-4.664 5.4-5.136V7l3.6 3.264-3.6 3.272z" fill="#384248"/>
  </g>
</svg>
