<svg width="24" height="24" xmlns="http://www.w3.org/2000/svg"><g fill="none" fill-rule="evenodd"><g fill="#45455E" fill-rule="nonzero"><path d="M18.903 11.533l3.339-1.93a1.563 1.563 0 0 0-1.03-.388h-4.618c-.398 0-.757.15-1.03.388l3.339 1.93z"/><path d="M19.2 12.66a.595.595 0 0 1-.594 0l-3.542-2.05c-.002.03-.01.059-.01.088v2.967c0 .82.69 1.484 1.54 1.484h4.618c.85 0 1.54-.665 1.54-1.484v-2.967c0-.03-.009-.057-.01-.087L19.2 12.659z"/></g><path d="M16.882 20.545a9.992 9.992 0 0 0 2.37-2.33l-1.621-1.173a7.97 7.97 0 0 1-1.896 1.865c-3.613 2.53-8.612 1.648-11.142-1.965C2.063 13.33 2.945 8.33 6.558 5.8 10.17 3.27 15.17 4.152 17.7 7.765l1.638-1.147C16.175 2.1 9.928.999 5.411 4.162.894 7.325-.21 13.572 2.955 18.089c3.163 4.517 9.41 5.619 13.927 2.456z" fill="#45455E" fill-rule="nonzero"/></g></svg>