<?xml version="1.0" encoding="UTF-8" standalone="no"?>
<svg width="233px" height="217px" viewBox="0 0 233 217" version="1.1" xmlns="http://www.w3.org/2000/svg" xmlns:xlink="http://www.w3.org/1999/xlink">
    <!-- Generator: Sketch 41 (35326) - http://www.bohemiancoding.com/sketch -->
    <title>web template source</title>
    <desc>Created with Sketch.</desc>
    <defs></defs>
    <g id="Page-1" stroke="none" stroke-width="1" fill="none" fill-rule="evenodd">
        <g id="Artboard" transform="translate(-20.000000, -19.000000)" fill="#384248">
            <g id="note" transform="translate(20.000000, 19.000000)">
                <path d="M198.828285,53.9229685 C197.971142,52.1093264 196.2844,49.0972639 193.704912,45.2843358 C189.450426,38.9954699 184.179606,32.7179391 177.82389,26.8564356 C159.640032,10.0865327 136.363067,1.42108547e-14 107.702744,1.42108547e-14 C45.940167,1.42108547e-14 2.07313697e-14,48.1847786 1.42108547e-14,105.310772 C1.42108547e-14,163.296984 47.0637038,216.630952 107.003682,216.630952 C134.96132,216.630952 157.803053,207.715265 175.786651,192.864713 C182.089925,187.659575 187.339571,182.079426 191.595009,176.484866 C194.181995,173.083793 195.884694,170.38953 196.759729,168.755392 C198.035716,166.372471 197.138369,163.406339 194.755447,162.130352 C192.372526,160.854364 189.406394,161.751711 188.130407,164.134633 C187.489667,165.331222 186.06172,167.590733 183.804096,170.558797 C179.985182,175.579465 175.248322,180.614545 169.553838,185.316954 C153.258128,198.773677 132.586406,206.842355 107.003682,206.842355 C52.7612613,206.842355 9.78859627,158.144472 9.78859627,105.310772 C9.78859627,53.4891834 51.4534608,9.78859627 107.702744,9.78859627 C133.765609,9.78859627 154.727744,18.8720507 171.187727,34.0521263 C176.957356,39.3731154 181.746377,45.0768264 185.597332,50.7692026 C187.88111,54.1450196 189.325441,56.7242034 189.978282,58.1055591 C191.133273,60.5494199 194.050718,61.5942558 196.494579,60.4392653 C198.93844,59.2842748 199.983276,56.3668293 198.828285,53.9229685 Z" id="Path-2-Copy-6"></path>
                <path d="M164.125449,82.5840919 L223.2606,82.5840919 L223.2606,99.3957739 C223.2606,101.856815 225.297193,103.851882 227.809458,103.851882 C230.321722,103.851882 232.358315,101.856815 232.358315,99.3957739 L232.358315,78.1279835 C232.358315,75.6669427 230.321722,73.671875 227.809458,73.671875 L159.576592,73.671875 C157.064327,73.671875 155.027734,75.6669427 155.027734,78.1279835 L155.027734,99.3957739 C155.027734,101.856815 157.064327,103.851882 159.576592,103.851882 C162.088856,103.851882 164.125449,101.856815 164.125449,99.3957739 L164.125449,82.5840919 Z" id="Stroke-2777"></path>
                <path d="M189.003364,78.1279835 L189.003364,144.969611 C189.003364,147.430651 191.039957,149.425719 193.552222,149.425719 C196.064486,149.425719 198.101079,147.430651 198.101079,144.969611 L198.101079,78.1279835 C198.101079,75.6669427 196.064486,73.671875 193.552222,73.671875 C191.039957,73.671875 189.003364,75.6669427 189.003364,78.1279835 Z" id="Stroke-2778"></path>
                <path d="M173.566557,149.149855 L214.506276,149.149855 C217.018541,149.149855 219.055134,147.154787 219.055134,144.693746 C219.055134,142.232706 217.018541,140.237638 214.506276,140.237638 L173.566557,140.237638 C171.054292,140.237638 169.017699,142.232706 169.017699,144.693746 C169.017699,147.154787 171.054292,149.149855 173.566557,149.149855 Z" id="Stroke-2779"></path>
            </g>
        </g>
    </g>
</svg>
